<?xml version="1.0" encoding="UTF-8" standalone="no"?><svg xmlns="http://www.w3.org/2000/svg" xmlns:xlink="http://www.w3.org/1999/xlink" data-name="Layer 3" fill="#ffffff" height="40.2" preserveAspectRatio="xMidYMid meet" version="1" viewBox="-0.1 -0.0 70.9 40.2" width="70.9" zoomAndPan="magnify"><g id="change1_1"><path d="M19,.14,18.47.08A13.76,13.76,0,0,0,16.92,0a17.39,17.39,0,0,0-5.74,1,18.14,18.14,0,0,0-7,4.44A16.69,16.69,0,0,0,1.48,9.06,11.69,11.69,0,0,0,0,13.62,8.49,8.49,0,0,0,1,18.38a10.31,10.31,0,0,0,3.32,3.67A12.09,12.09,0,0,0,9,23.93a13.11,13.11,0,0,0,4.43,0,10,10,0,0,0,5.2-2.25,4.65,4.65,0,0,0,.82-1l.19-.38-.3.26a2.8,2.8,0,0,1-.38.3,5.38,5.38,0,0,1-.58.37,10.66,10.66,0,0,1-4.56,1.16,12.33,12.33,0,0,1-3.37-.27,9,9,0,0,1-3.27-1.5A8.28,8.28,0,0,1,4.7,17.71,7.3,7.3,0,0,1,4,13.81,14.12,14.12,0,0,1,6.81,7,16.57,16.57,0,0,1,16.88.48c.66-.14,1.19-.22,1.55-.27Z" fill="inherit"/></g><g id="change1_2"><path d="M19.59,20.27l.18-.27h0a9.67,9.67,0,0,1,0,3.46,15,15,0,0,1-3.67,7.1,15.06,15.06,0,0,1-4.59,3.55c-1,.55-2.06,1.08-3.19,1.65l-.86.43a3.88,3.88,0,0,0-1.19.86,1.6,1.6,0,0,0-.42,1,1.58,1.58,0,0,0,.43,1.1,3.17,3.17,0,0,0,2,1A5.09,5.09,0,0,0,10.23,40c.49-.15.86-.3,1.17-.42l2-.78c1.35-.54,2.73-1.13,4.11-1.78A35.31,35.31,0,0,0,25.46,32a23,23,0,0,0,8-14.25,19.3,19.3,0,0,0-.29-6.66,15.12,15.12,0,0,0-2.43-5.45,13.17,13.17,0,0,0-8-5.24A13.69,13.69,0,0,0,20,.13c-.64,0-1,0-1,0l.82.1a15.78,15.78,0,0,1,2.31.52,12.45,12.45,0,0,1,3.23,1.56,11.2,11.2,0,0,1,3.08,3.19,13.56,13.56,0,0,1,1.87,4.82,18.83,18.83,0,0,1,0,6.1A21.24,21.24,0,0,1,28,23.26,24.17,24.17,0,0,1,22.49,30a34.8,34.8,0,0,1-6.69,4.34c-1.21.62-2.44,1.2-3.68,1.76L10.26,37l-.91.4a4.58,4.58,0,0,1-.56.21l-.06,0c-.05.74,0,.2,0,.36h0v-.09l0,0a.79.79,0,0,1-.18.16.87.87,0,0,1-.27.12h.07l.14,0a2.54,2.54,0,0,1,.37.17l.11.07H9v0A6.35,6.35,0,0,1,9.59,38c1.05-.62,2.11-1.23,3.13-1.87a17,17,0,0,0,4.93-4.36,14.29,14.29,0,0,0,2.9-8.09A9.19,9.19,0,0,0,19.77,20v0l0,0Z" fill="inherit"/></g><g id="change1_3"><path d="M56,.14,55.46.08A13.41,13.41,0,0,0,53.92,0a17.41,17.41,0,0,0-5.75,1,18.29,18.29,0,0,0-7,4.44,16.65,16.65,0,0,0-2.73,3.65A11.53,11.53,0,0,0,37,13.62,8.57,8.57,0,0,0,38,18.38a10.41,10.41,0,0,0,3.32,3.67,12.09,12.09,0,0,0,4.66,1.88,13.11,13.11,0,0,0,4.43,0,10,10,0,0,0,5.2-2.25,4.36,4.36,0,0,0,.82-1l.2-.38-.3.26a2.42,2.42,0,0,1-.39.3,4.54,4.54,0,0,1-.58.37,10.62,10.62,0,0,1-4.56,1.16,12.23,12.23,0,0,1-3.36-.27,8.89,8.89,0,0,1-3.27-1.5,8.31,8.31,0,0,1-2.44-2.88,7.2,7.2,0,0,1-.7-3.9A14.11,14.11,0,0,1,43.8,7,16.57,16.57,0,0,1,53.87.48c.66-.14,1.19-.22,1.56-.27Z" fill="inherit"/></g><g id="change1_4"><path d="M56.59,20.27l.17-.27h0a9.93,9.93,0,0,1,0,3.46,15.14,15.14,0,0,1-3.67,7.1,15.31,15.31,0,0,1-4.59,3.55c-1,.55-2.06,1.08-3.2,1.65l-.85.43a3.78,3.78,0,0,0-1.2.86,1.66,1.66,0,0,0-.42,1,1.58,1.58,0,0,0,.43,1.1,3.17,3.17,0,0,0,2,1A5,5,0,0,0,47.22,40c.5-.15.86-.3,1.18-.42l2-.78c1.35-.54,2.73-1.13,4.11-1.78A35.31,35.31,0,0,0,62.45,32a23,23,0,0,0,8-14.25,19,19,0,0,0-.3-6.66,15.12,15.12,0,0,0-2.43-5.45,13.12,13.12,0,0,0-8-5.24A13.82,13.82,0,0,0,57,.13c-.64,0-1,0-1,0l.81.1a15.5,15.5,0,0,1,2.31.52,12.49,12.49,0,0,1,3.24,1.56,11.31,11.31,0,0,1,3.07,3.19,13.38,13.38,0,0,1,1.87,4.82,18.56,18.56,0,0,1,0,6.1A21.21,21.21,0,0,1,65,23.26,24.39,24.39,0,0,1,59.48,30a34.8,34.8,0,0,1-6.69,4.34c-1.2.62-2.44,1.2-3.68,1.76L47.26,37l-.91.4a5.31,5.31,0,0,1-.56.21l-.06,0c-.06.74,0,.2,0,.36h0v-.09a.11.11,0,0,1,0,0,.49.49,0,0,1-.17.16.81.81,0,0,1-.28.12h.07l.15,0a2.11,2.11,0,0,1,.36.17l.11.07h0l0,0a4.71,4.71,0,0,1,.58-.37c1.05-.62,2.12-1.23,3.13-1.87a17,17,0,0,0,4.93-4.36,14.21,14.21,0,0,0,2.9-8.09A9,9,0,0,0,56.76,20v0Z" fill="inherit"/></g></svg>