<svg xmlns="http://www.w3.org/2000/svg" id="gWK5v1sC190LiL7x" viewBox="0 0 260.58282543575643 341.31308421166665" preserveAspectRatio="none" style="width:100%;height:100%;opacity:1.0;overflow:hidden;position:absolute;top:0%;left:0%;background:url(https://kromaticdesignstudio.my.canva.site/couples-therapist/&amp;);">
                            <g id="eUk13N8OwJKseBxw" style="transform:scale(1, 1);">
                              <g id="gypZte4oYMlVCR7w" style="clip-path:url(index.html);">
                                <clipPath id="qdOPMlC2X52HmydI">
                                  <path d="M35,0 L225.58282471,0 C234.86540185,0 243.7677888,3.68748941 250.33156205,10.25126266 256.8953353,16.8150359 260.58282471,25.71742286 260.58282471,35 L260.58282471,306.31307983 C260.5828247,325.64304608 244.91279095,341.31307983 225.58282471,341.31307983 L35,341.31307983 C25.71742285,341.31307983 16.8150359,337.62559042 10.25126266,331.06181717 3.68748941,324.49804393 0,315.59565698 0,306.31307983 L0,35 C0,15.67003376 15.67003376,0 35,0 Z"></path>
                                </clipPath>
                                <path id="NcKxfJnQA4nxMczO" d="M35,0 L225.58282471,0 C234.86540185,0 243.7677888,3.68748941 250.33156205,10.25126266 256.8953353,16.8150359 260.58282471,25.71742286 260.58282471,35 L260.58282471,306.31307983 C260.5828247,325.64304608 244.91279095,341.31307983 225.58282471,341.31307983 L35,341.31307983 C25.71742285,341.31307983 16.8150359,337.62559042 10.25126266,331.06181717 3.68748941,324.49804393 0,315.59565698 0,306.31307983 L0,35 C0,15.67003376 15.67003376,0 35,0 Z" style="fill:none;stroke:transparent;"></path>
                                <path id="Zh1hnNPZRrOQuQjW" d="M35,0 L225.58282471,0 C234.86540185,0 243.7677888,3.68748941 250.33156205,10.25126266 256.8953353,16.8150359 260.58282471,25.71742286 260.58282471,35 L260.58282471,306.31307983 C260.5828247,325.64304608 244.91279095,341.31307983 225.58282471,341.31307983 L35,341.31307983 C25.71742285,341.31307983 16.8150359,337.62559042 10.25126266,331.06181717 3.68748941,324.49804393 0,315.59565698 0,306.31307983 L0,35 C0,15.67003376 15.67003376,0 35,0 Z" style="fill:none;stroke-linecap:round;vector-effect:non-scaling-stroke;stroke:var(--color-black);"></path>
                              </g>
                            </g>
                          </svg>